<svg xmlns="http://www.w3.org/2000/svg" viewBox="0 0 48 48" width="48px" height="48px">
  <path fill="#EA4335" d="M24 9.5c3.54 0 6.69 1.35 9.14 3.55l6.84-6.84C35.7 2.54 30.15 0 24 0 14.34 0 6.16 5.64 2.34 13.86l7.95 6.16C12.34 13.6 17.72 9.5 24 9.5z"/>
  <path fill="#4285F4" d="M46.45 24.55c0-1.74-.14-3.43-.41-5.05H24v9.58h12.62c-.55 2.98-2.18 5.54-4.65 7.22l7.33 5.67c4.34-4.02 6.85-9.95 6.85-17.42z"/>
  <path fill="#FBBC05" d="M8.29 28.11c-.59-1.75-.93-3.63-.93-5.61s.34-3.86.93-5.61L.34 10.73C-.62 13.03-1 15.63-1 18.5s.38 5.47 1.34 7.77l7.95-6.16z"/>
  <path fill="#34A853" d="M24 38.5c-4.65 0-8.8-1.54-12.09-4.15l-7.95 6.16C6.16 42.36 14.34 48 24 48c6.15 0 11.7-2.54 15.98-6.61l-7.33-5.67c-2.01 1.54-4.58 2.53-7.64 2.53z"/>
  <path fill="none" d="M0 0h48v48H0z"/>
</svg>